<?xml version="1.0" encoding="UTF-8"?>
<svg id="Layer_1" data-name="Layer 1" xmlns="http://www.w3.org/2000/svg" viewBox="0 0 1087.8 406.7">
  <defs>
    <style>
      .cls-1 {
        fill: #131318;
      }

      .cls-1, .cls-2, .cls-3 {
        stroke-width: 0px;
      }

      .cls-2 {
        fill-rule: evenodd;
      }

      .cls-2, .cls-3 {
        fill: #f87248;
      }
    </style>
  </defs>
  <g>
    <path class="cls-3" d="M88.52,152.44c3.83-28.5,28.41-50.49,58.18-50.49,32.42,0,58.69,26.08,58.69,58.26,0,17.07-7.4,32.43-19.19,43.09-2.65,2.39-3.03,6.53-.66,9.19,5.71,6.39,10.91,13.25,15.51,20.52,1.86,2.94,5.87,3.8,8.55,1.57,21.35-17.81,34.92-44.51,34.92-74.36,0-53.62-43.8-97.09-97.82-97.09s-94.61,40.36-97.65,91.27c-.19,3.21,2.45,5.83,5.7,5.83h13.7c3.98,0,6.04,0,11.82.44,5.79.43,7.22-.44,8.26-8.2Z"/>
    <path class="cls-2" d="M48.87,185.45c0-3.22,2.63-5.83,5.87-5.83h13.7c73.67,0,133.75,57.73,136.83,130.1.14,3.21-2.5,5.83-5.75,5.83h-27.39c-3.24,0-5.85-2.61-6.04-5.83-3.04-50.91-45.59-91.27-97.65-91.27h-13.7c-3.24,0-5.87-2.61-5.87-5.83v-27.19Z"/>
  </g>
  <path class="cls-1" d="M281.38,193.94c8.75-.53,11.93-2.52,11.93-11v-68.25c0-8.35-3.31-10.34-11.93-10.87v-1.86h37.11c21.6,0,35.12,10.2,35.12,26.24,0,13.12-9.14,22.26-23.72,25.05l23.85,33.13c2.92,4.11,8.35,7.16,12.19,7.42v1.99h-21.73c-.53-2.52-1.72-4.51-3.45-7.02l-23.99-34.19h-11.4v28.36c0,8.88,3.58,10.47,11.93,11v1.86h-35.91v-1.86ZM305.36,150.87h11c15.24,0,24.25-9.81,24.25-22.66s-8.88-22.53-24.25-22.53h-11v45.19Z"/>
  <path class="cls-1" d="M398.57,197.65c-19.88,0-31.01-14.97-31.01-33.66,0-21.6,12.85-36.58,31.27-36.58,16.56,0,24.91,12.99,23.59,28.36h-43.33v2.78c0,17.63,8.75,30.88,24.91,30.88,7.69,0,14.44-5.3,16.96-13.25l1.72.4c-2.12,12.59-11.93,21.07-24.12,21.07ZM379.36,152.72h32.07c.66-11.4-5.3-21.6-14.84-21.6-10.2,0-16.03,8.35-17.23,21.6Z"/>
  <path class="cls-1" d="M493.72,185.46c0,5.43,2.25,7.55,9.14,8.48v1.86h-29.29v-1.86c6.89-.93,9.14-3.05,9.14-8.48v-35.12c0-9.67-4.51-15.11-12.59-15.11-6.76,0-12.46,3.98-18.55,11v39.23c0,5.43,2.25,7.55,9.14,8.48v1.86h-29.29v-1.86c6.89-.93,9.14-3.05,9.14-8.48v-42.67c0-7.16-2.52-8.48-9.14-7.29v-1.86l18.29-6.23h1.86v15.5c7.16-9.81,14.58-15.5,22.93-15.5,12.32,0,19.22,8.61,19.22,22.4v35.65Z"/>
  <path class="cls-1" d="M530.55,197.78c-10.07,0-18.16-7.02-18.16-17.23,0-13.38,8.35-20.94,27.3-22.79l11.13-1.06v-6.1c0-11.93-5.7-19.48-15.11-19.48-10.6,0-14.18,7.69-12.72,13.52,1.19,4.9-.66,7.42-3.45,8.22-3.45.93-7.16-.79-7.16-6.23.13-8.08,8.08-19.22,26.11-19.22,14.45,0,23.32,9.14,23.32,23.85v35.12c0,3.31,1.59,5.3,3.98,5.3,1.72,0,3.58-1.33,5.3-4.37l1.59.66c-3.45,8.22-8.61,9.81-11.53,9.81-5.04,0-10.34-3.71-10.34-11.4v-5.04c-3.84,10.6-11.4,16.43-20.28,16.43ZM523.79,177.37c0,7.42,5.43,12.85,12.32,12.85,6.23,0,11.26-4.77,14.71-12.32v-17.63l-10.2,1.33c-11.4,1.46-16.83,6.76-16.83,15.77Z"/>
  <path class="cls-1" d="M598.72,185.46c0,5.43,2.25,7.55,9.14,8.48v1.86h-29.29v-1.86c6.89-.93,9.14-3.05,9.14-8.48v-42.67c0-7.16-2.52-8.48-9.14-7.29v-1.86l18.29-6.23h1.85v58.04ZM584.81,109.39c0-4.51,3.58-7.95,8.35-7.95s8.08,3.45,8.08,7.95-3.45,7.95-8.08,7.95-8.35-3.45-8.35-7.95Z"/>
  <path class="cls-1" d="M641.32,197.65c-13.65,0-18.95-10.6-19.75.13h-1.85l-3.45-22.4h1.85c4.51,11.93,13.78,18.55,23.06,18.55,8.08,0,14.05-4.64,14.05-11.93,0-19.22-38.3-11.79-38.3-36.18,0-11.13,9.01-18.42,20.94-18.42,12.86,0,18.82,10.47,18.95,0h1.86l3.31,20.54h-1.85c-4.51-10.47-12.32-16.83-21.73-16.83-7.16,0-12.59,4.37-12.59,11,0,17.36,38.3,9.81,38.3,36.18,0,10.73-8.48,19.35-22.8,19.35Z"/>
  <path class="cls-1" d="M698.78,197.65c-13.65,0-18.95-10.6-19.74.13h-1.86l-3.45-22.4h1.86c4.5,11.93,13.78,18.55,23.06,18.55,8.08,0,14.05-4.64,14.05-11.93,0-19.22-38.3-11.79-38.3-36.18,0-11.13,9.01-18.42,20.94-18.42,12.86,0,18.82,10.47,18.95,0h1.85l3.32,20.54h-1.86c-4.51-10.47-12.32-16.83-21.73-16.83-7.16,0-12.59,4.37-12.59,11,0,17.36,38.3,9.81,38.3,36.18,0,10.73-8.48,19.35-22.8,19.35Z"/>
  <path class="cls-1" d="M751.2,197.78c-10.07,0-18.15-7.02-18.15-17.23,0-13.38,8.35-20.94,27.3-22.79l11.13-1.06v-6.1c0-11.93-5.7-19.48-15.11-19.48-10.6,0-14.18,7.69-12.72,13.52,1.19,4.9-.66,7.42-3.45,8.22-3.45.93-7.16-.79-7.16-6.23.13-8.08,8.08-19.22,26.11-19.22,14.45,0,23.33,9.14,23.33,23.85v35.12c0,3.31,1.59,5.3,3.97,5.3,1.72,0,3.58-1.33,5.3-4.37l1.59.66c-3.45,8.22-8.62,9.81-11.53,9.81-5.03,0-10.34-3.71-10.34-11.4v-5.04c-3.84,10.6-11.4,16.43-20.28,16.43ZM744.45,177.37c0,7.42,5.43,12.85,12.32,12.85,6.23,0,11.26-4.77,14.71-12.32v-17.63l-10.2,1.33c-11.4,1.46-16.83,6.76-16.83,15.77Z"/>
  <path class="cls-1" d="M860.31,185.46c0,5.43,2.25,7.55,9.14,8.48v1.86h-29.29v-1.86c6.89-.93,9.14-3.05,9.14-8.48v-35.12c0-9.67-4.51-15.11-12.59-15.11-6.76,0-12.46,3.98-18.55,11v39.23c0,5.43,2.25,7.55,9.14,8.48v1.86h-29.29v-1.86c6.89-.93,9.14-3.05,9.14-8.48v-42.67c0-7.16-2.51-8.48-9.14-7.29v-1.86l18.29-6.23h1.86v15.5c7.16-9.81,14.58-15.5,22.93-15.5,12.32,0,19.21,8.61,19.21,22.4v35.65Z"/>
  <path class="cls-1" d="M927.31,149.28c-4.37-12.59-12.19-18.15-21.47-18.15-11.53,0-19.88,11.53-19.88,27.03,0,16.7,9.68,31.27,25.44,31.27,8.35,0,15.24-5.3,18.16-14.05l1.59.4c-2.12,12.99-11.79,21.87-25.04,21.87-17.89,0-31.54-14.44-31.54-33.92,0-20.67,13.12-36.31,30.08-36.31,15.63,0,18.68,9.01,19.88,0h1.59l3.04,21.87h-1.85Z"/>
  <path class="cls-1" d="M970.28,197.65c-19.88,0-31.01-14.97-31.01-33.66,0-21.6,12.85-36.58,31.27-36.58,16.57,0,24.91,12.99,23.59,28.36h-43.33v2.78c0,17.63,8.74,30.88,24.91,30.88,7.69,0,14.44-5.3,16.96-13.25l1.72.4c-2.12,12.59-11.93,21.07-24.12,21.07ZM951.06,152.72h32.07c.66-11.4-5.3-21.6-14.84-21.6-10.21,0-16.03,8.35-17.23,21.6Z"/>
  <path class="cls-1" d="M281.38,313.64c8.75-.53,11.93-2.52,11.93-11v-68.25c0-8.35-3.31-10.34-11.93-10.87v-1.85h37.11c21.6,0,35.12,10.2,35.12,26.24s-13.52,26.37-35.12,26.37h-13.12v28.36c0,8.88,3.58,10.47,11.93,11v1.86h-35.91v-1.86ZM305.36,270.57h11c15.24,0,24.25-9.81,24.25-22.66s-8.88-22.53-24.25-22.53h-11v45.19Z"/>
  <path class="cls-1" d="M420.39,305.16c0,5.43,2.25,7.55,9.14,8.48v1.86h-29.29v-1.86c6.89-.93,9.14-3.05,9.14-8.48v-35.12c0-9.67-4.51-15.11-12.59-15.11-6.76,0-12.46,3.98-18.55,11v39.23c0,5.43,2.25,7.55,9.14,8.48v1.86h-29.29v-1.86c6.89-.93,9.14-3.05,9.14-8.48v-70.1c0-7.02-2.52-8.35-9.14-7.29v-1.85l18.29-6.23h1.86v42.94c7.16-9.81,14.58-15.5,22.93-15.5,12.32,0,19.22,8.61,19.22,22.4v35.65Z"/>
  <path class="cls-1" d="M456.9,305.16c0,5.43,2.25,7.55,9.14,8.48v1.86h-29.29v-1.86c6.89-.93,9.14-3.05,9.14-8.48v-42.67c0-7.16-2.52-8.48-9.14-7.29v-1.86l18.29-6.23h1.86v58.04ZM442.98,229.09c0-4.51,3.58-7.95,8.35-7.95s8.08,3.45,8.08,7.95-3.45,7.95-8.08,7.95-8.35-3.45-8.35-7.95Z"/>
  <path class="cls-1" d="M493.72,305.16c0,5.43,2.25,7.55,9.14,8.48v1.86h-29.29v-1.86c6.89-.93,9.14-3.05,9.14-8.48v-70.1c0-7.02-2.52-8.35-9.14-7.29v-1.85l18.29-6.23h1.86v85.48Z"/>
  <path class="cls-1" d="M530.55,317.48c-10.07,0-18.16-7.02-18.16-17.23,0-13.38,8.35-20.94,27.3-22.79l11.13-1.06v-6.1c0-11.93-5.7-19.48-15.11-19.48-10.6,0-14.18,7.69-12.72,13.52,1.19,4.9-.66,7.42-3.45,8.22-3.45.93-7.16-.79-7.16-6.23.13-8.08,8.08-19.22,26.11-19.22,14.44,0,23.33,9.14,23.33,23.85v35.12c0,3.31,1.59,5.3,3.97,5.3,1.72,0,3.58-1.33,5.3-4.37l1.59.66c-3.45,8.22-8.62,9.81-11.53,9.81-5.03,0-10.34-3.71-10.34-11.4v-5.04c-3.84,10.6-11.4,16.43-20.28,16.43ZM523.79,297.08c0,7.42,5.43,12.85,12.32,12.85,6.23,0,11.26-4.77,14.71-12.32v-17.63l-10.2,1.33c-11.4,1.46-16.83,6.76-16.83,15.77Z"/>
  <path class="cls-1" d="M640.86,305.16c0,5.43,2.25,7.55,9.14,8.48v1.86h-29.29v-1.86c6.89-.93,9.14-3.05,9.14-8.48v-35.12c0-9.67-4.5-15.11-12.58-15.11-6.76,0-12.46,3.98-18.55,11v39.23c0,5.43,2.25,7.55,9.14,8.48v1.86h-29.29v-1.86c6.89-.93,9.14-3.05,9.14-8.48v-42.67c0-7.16-2.51-8.48-9.14-7.29v-1.86l18.29-6.23h1.86v15.5c7.16-9.81,14.58-15.5,22.93-15.5,12.32,0,19.21,8.61,19.21,22.4v35.65Z"/>
  <path class="cls-1" d="M694.81,307.68c-1.19,3.05-6.23,9.81-13.78,9.81-10.6,0-16.7-7.02-16.7-19.22v-45.45h-10.87v-1.86c10.6-2.65,17.23-8.75,20.01-19.22h1.86v17.36h18.81v3.71h-18.81v45.19c0,8.08,3.58,13.65,10.73,13.38,4.11-.13,5.96-2.65,7.69-4.37l1.06.66Z"/>
  <path class="cls-1" d="M763.68,305.16c0,5.43,2.25,7.55,9.14,8.48v1.86h-29.29v-1.86c6.89-.93,9.14-3.05,9.14-8.48v-35.12c0-9.67-4.5-15.11-12.59-15.11-6.76,0-12.45,3.98-18.55,11v39.23c0,5.43,2.25,7.55,9.14,8.48v1.86h-29.29v-1.86c6.89-.93,9.14-3.05,9.14-8.48v-70.1c0-7.02-2.52-8.35-9.14-7.29v-1.85l18.29-6.23h1.85v42.94c7.16-9.81,14.58-15.5,22.93-15.5,12.32,0,19.21,8.61,19.21,22.4v35.65Z"/>
  <path class="cls-1" d="M816.41,247.12c6.36,0,10.34,2.78,10.34,7.16,0,3.31-2.12,5.83-5.03,5.83-4.77,0-4.77-4.37-9.81-4.37-6.76,0-12.72,8.08-12.72,18.82v30.74c0,6.1,4.11,7.42,12.99,8.35v1.86h-33.13v-1.86c6.89-.93,9.14-3.18,9.14-8.35v-42.8c0-7.16-2.52-8.48-9.14-7.29v-1.86l18.29-6.23h1.85v17.36c2.65-11.4,9.81-17.36,17.23-17.36Z"/>
  <path class="cls-1" d="M860.41,317.48c-18.15,0-30.61-13.65-30.61-33.79,0-21.73,12.99-36.58,31.8-36.58s30.75,13.65,30.75,33.66c0,22-12.99,36.71-31.94,36.71ZM841.33,275.61c0,19.08,8.88,38.17,22.13,38.17,10.34,0,17.36-10.34,17.36-24.65,0-19.22-9.01-38.3-22.26-38.3-10.34,0-17.23,10.34-17.23,24.78Z"/>
  <path class="cls-1" d="M939.31,247.12c17.23,0,27.83,14.31,27.83,33.53,0,22.13-12.86,36.84-31.28,36.84-6.63,0-13.12-2.78-16.83-6.89v21.07c0,5.83,4.11,7.16,12.99,8.08v1.86h-33.53v-1.86c5.43-.93,9.54-2.25,9.54-8.08v-69.18c0-7.16-2.65-8.48-9.14-7.29v-1.86l18.29-6.23h1.86v16.3c2.38-9.54,10.2-16.3,20.27-16.3ZM919.04,293.89c0,9.67,5.83,19.88,17.49,19.88s18.81-11.53,18.81-27.7c0-18.69-7.82-32.47-21.07-32.47-7.29,0-13.39,6.1-15.24,13.78v26.5Z"/>
  <path class="cls-1" d="M981.7,343.59c-6.22,0-12.06-2.92-12.06-7.69,0-3.31,2.38-5.96,5.96-5.96,3.84,0,7.03,4.37,12.72,4.37,5.3,0,9.14-3.84,12.46-12.32l2.25-5.83-23.59-56.32c-2.25-5.57-5.3-8.48-9.01-8.88v-1.86h28.89v1.86c-7.42.53-9.94,3.45-7.69,8.88l17.1,42.27,16.7-42.27c2.25-5.43,0-8.35-6.89-8.88v-1.86h20.14v1.86c-3.98.4-6.89,3.31-9.27,8.88l-25.18,63.34c-3.84,10.07-10.87,20.41-22.53,20.41Z"/>
</svg>